<mxfile host="app.diagrams.net" modified="2024-05-07T16:41:57.813Z" agent="Mozilla/5.0 (Macintosh; Intel Mac OS X 10_15_7) AppleWebKit/605.1.15 (KHTML, like Gecko) Version/16.3 Safari/605.1.15" version="24.3.1" etag="OIzZtjBDgvZtHEjRSVFK" type="github">
  <diagram name="第 1 页" id="OMrGNnY97D6b--7gQZGL">
    <mxGraphModel>
      <root>
        <mxCell id="0" />
        <mxCell id="1" parent="0" />
      </root>
    </mxGraphModel>
  </diagram>
</mxfile>
